<?xml version="1.0" encoding="iso-8859-1"?>
<!-- Generator: Adobe Illustrator 19.0.0, SVG Export Plug-In . SVG Version: 6.00 Build 0)  -->
<svg version="1.1" id="Layer_1" xmlns="http://www.w3.org/2000/svg" xmlns:xlink="http://www.w3.org/1999/xlink" x="0px" y="0px"
	 viewBox="0 0 512 512" style="enable-background:new 0 0 512 512;" xml:space="preserve">
<path style="fill:#BDFDFF;" d="M473.833,138.71c-0.197-1.585-0.514-3.133-0.96-4.627c-0.155-0.514-0.341-1.013-0.521-1.515
	c-3.015-8.323-9.77-14.854-18.263-17.495c-0.283-0.087-0.58-0.144-0.867-0.224c-0.614-0.169-1.229-0.349-1.86-0.478
	c-0.305-0.063-0.622-0.089-0.931-0.142c-0.628-0.108-1.252-0.224-1.894-0.29c-0.182-0.019-0.37-0.013-0.556-0.028
	c-0.777-0.063-1.555-0.119-2.35-0.119l-28.446,0.002V28.444C417.185,12.736,404.45,0,388.741,0H256H123.259
	C107.55,0,94.815,12.736,94.815,28.444v85.32l-28.443-0.002c0,0,0,0-0.002,0c-1.386,0-2.752,0.135-4.105,0.332
	c-0.118,0.017-0.231,0.034-0.345,0.051c-0.626,0.101-1.248,0.214-1.864,0.355c-0.07,0.017-0.142,0.038-0.214,0.055
	c-1.881,0.444-3.703,1.079-5.452,1.893c-0.138,0.064-0.279,0.131-0.419,0.197c-2.355,1.143-4.551,2.611-6.531,4.38
	c-0.025,0.021-0.046,0.04-0.068,0.061c-0.372,0.336-0.757,0.652-1.113,1.009c-1.032,1.03-1.946,2.149-2.795,3.313
	c-0.053,0.074-0.112,0.148-0.167,0.222c-0.303,0.429-0.595,0.863-0.876,1.305c-0.176,0.275-0.345,0.556-0.512,0.838
	c-0.203,0.343-0.406,0.685-0.594,1.035c-0.36,0.671-0.702,1.354-1.009,2.057c-0.047,0.112-0.11,0.218-0.155,0.328
	c-0.258,0.609-0.468,1.238-0.683,1.868c-0.089,0.26-0.197,0.514-0.277,0.776c-0.18,0.584-0.317,1.185-0.459,1.784
	c-0.076,0.313-0.173,0.62-0.235,0.937c-0.146,0.719-0.245,1.456-0.336,2.194c-0.025,0.201-0.068,0.396-0.089,0.597
	c-0.097,0.946-0.146,1.9-0.146,2.858v0.032v113.746v227.571C37.926,499.264,50.661,512,66.37,512H256h189.63
	c15.709,0,28.444-12.736,28.444-28.444V255.985V142.239C474.074,141.041,473.975,139.869,473.833,138.71z"/>
<path style="fill:#ACABB1;" d="M388.741,0H256H123.259C107.55,0,94.815,12.736,94.815,28.444v85.32l28.444,0.002l132.43,0.011
	c0.104,0,0.205-0.015,0.311-0.015s0.207,0.015,0.311,0.015l132.43,0.011l28.444,0.002V28.444C417.185,12.736,404.45,0,388.741,0z"/>
<path style="fill:#898890;" d="M284.444,483.556v-28.444v-28.46c0-15.709-12.736-28.444-28.444-28.444
	c-15.709,0-28.444,12.736-28.444,28.444v28.46v28.444C227.556,499.264,240.291,512,256,512
	C271.709,512,284.444,499.264,284.444,483.556z"/>
<g>
	<rect x="284.444" y="170.686" style="fill:#E0E0E2;" width="132.741" height="56.857"/>
	<rect x="94.815" y="170.686" style="fill:#E0E0E2;" width="132.741" height="56.857"/>
</g>
<path style="fill:#81E5EE;" d="M227.556,483.556v-28.444v-28.46c0-15.709,12.736-28.444,28.444-28.444V113.763
	c-0.106,0-0.207,0.015-0.311,0.015l-132.43-0.009l-28.444-0.002l-28.443-0.002c0,0,0,0-0.002,0c-1.386,0-2.752,0.135-4.105,0.332
	c-0.118,0.017-0.231,0.034-0.345,0.051c-0.626,0.101-1.248,0.214-1.864,0.355c-0.07,0.017-0.142,0.036-0.214,0.055
	c-1.881,0.444-3.703,1.079-5.452,1.893c-0.138,0.064-0.279,0.131-0.419,0.197c-2.355,1.143-4.551,2.611-6.531,4.38
	c-0.025,0.021-0.046,0.04-0.068,0.061c-0.372,0.336-0.757,0.652-1.113,1.009c-1.032,1.03-1.946,2.149-2.795,3.311
	c-0.053,0.074-0.112,0.148-0.167,0.222c-0.303,0.429-0.595,0.863-0.876,1.305c-0.176,0.275-0.345,0.556-0.512,0.838
	c-0.201,0.343-0.406,0.685-0.594,1.035c-0.36,0.671-0.702,1.354-1.009,2.057c-0.047,0.112-0.11,0.218-0.155,0.328
	c-0.258,0.609-0.468,1.238-0.683,1.868c-0.089,0.26-0.197,0.514-0.277,0.776c-0.18,0.584-0.317,1.185-0.459,1.784
	c-0.076,0.313-0.173,0.62-0.235,0.937c-0.146,0.719-0.245,1.456-0.336,2.194c-0.025,0.201-0.068,0.396-0.089,0.597
	c-0.097,0.946-0.146,1.9-0.146,2.858v0.032v113.746v227.571C37.926,499.264,50.661,512,66.37,512H256
	C240.291,512,227.556,499.264,227.556,483.556z M94.815,170.684h132.741v56.857H94.815V170.684z"/>
<path style="fill:#898890;" d="M255.689,113.778c0.104,0,0.205-0.015,0.311-0.015V0H123.259C107.55,0,94.815,12.736,94.815,28.444
	v85.32l28.444,0.002L255.689,113.778z"/>
<g>
</g>
<g>
</g>
<g>
</g>
<g>
</g>
<g>
</g>
<g>
</g>
<g>
</g>
<g>
</g>
<g>
</g>
<g>
</g>
<g>
</g>
<g>
</g>
<g>
</g>
<g>
</g>
<g>
</g>
</svg>
